<?xml version="1.0" encoding="utf-8"?>
<!-- Generator: Adobe Illustrator 16.0.0, SVG Export Plug-In . SVG Version: 6.00 Build 0)  -->
<!DOCTYPE svg PUBLIC "-//W3C//DTD SVG 1.1//EN" "http://www.w3.org/Graphics/SVG/1.1/DTD/svg11.dtd">
<svg version="1.1" id="ae" xmlns="http://www.w3.org/2000/svg" xmlns:xlink="http://www.w3.org/1999/xlink" x="0px" y="0px"
	 width="100px" height="100px" viewBox="0 0 100 100" style="enable-background:new 0 0 100 100;" xml:space="preserve">
<g id="AE">
	
		<linearGradient id="SVGID_1_" gradientUnits="userSpaceOnUse" x1="28.8721" y1="706.8672" x2="95.6807" y2="773.6757" gradientTransform="matrix(1 0 0 1 -12 -691)">
		<stop  offset="0" style="stop-color:#02CCBA"/>
		<stop  offset="1" style="stop-color:#02B3E4"/>
	</linearGradient>
	<circle style="fill:url(#SVGID_1_);" cx="50.405" cy="49.4" r="47.044"/>
	
		<linearGradient id="SVGID_2_" gradientUnits="userSpaceOnUse" x1="53.5029" y1="51.9814" x2="86.4175" y2="19.0669" gradientTransform="matrix(1 0 0 -1 -6 105)">
		<stop  offset="0.381" style="stop-color:#000000"/>
		<stop  offset="1" style="stop-color:#FFFFFF;stop-opacity:0"/>
	</linearGradient>
	<path style="opacity:0.15;fill:url(#SVGID_2_);enable-background:new    ;" d="M85.561,40.163l-3.819,0.422l-0.536-0.608
		l-29.002,8.341L27.895,78.132l10.579,16.771c12.543,3.283,26.379,1.399,38.018-6.354c12.121-8.074,19.283-20.806,20.699-34.238
		L85.561,40.163z"/>
	<g>
		<polygon style="fill:#DFE5EA;" points="54.247,82.084 60.818,69.064 66.193,74.812 55.812,85.164 		"/>
		<g>
			<path style="fill:#D1D7DB;" d="M35.69,62.009c0.743,1.116,0.442,2.624-0.674,3.367l0,0c-1.116,0.745-2.625,0.442-3.368-0.674
				l-0.845-1.269c-0.744-1.117-0.442-2.623,0.674-3.367l0,0c1.117-0.743,2.624-0.442,3.367,0.675L35.69,62.009z"/>
			<path style="fill:#D1D7DB;" d="M39.786,53.215c0.744,1.115,0.441,2.622-0.674,3.366l0,0c-1.116,0.744-2.625,0.442-3.368-0.674
				l-0.845-1.267c-0.744-1.117-0.442-2.625,0.674-3.369l0,0c1.116-0.744,2.624-0.441,3.368,0.674L39.786,53.215z"/>
			<polygon style="fill:#DFE5EA;" points="50.939,55.012 28.292,78.555 26.424,75.393 32.061,64.141 42.37,42.509 			"/>
		</g>
		<polygon style="fill:#DFE5EA;" points="78.826,65.477 64.279,66.531 67.514,73.701 81.064,68.105 		"/>
		<g>
			<path style="fill:#D1D7DB;" d="M67.441,40.621c0.744,1.117,2.25,1.418,3.367,0.675l0,0c1.115-0.744,1.418-2.251,0.674-3.368
				l-0.844-1.268c-0.744-1.116-2.252-1.417-3.367-0.674l0,0c-1.117,0.745-1.418,2.252-0.674,3.368L67.441,40.621z"/>
			<path style="fill:#D1D7DB;" d="M57.749,41.016c0.743,1.116,2.251,1.417,3.364,0.674l0,0c1.117-0.745,1.421-2.252,0.677-3.368
				l-0.845-1.268c-0.743-1.116-2.252-1.418-3.367-0.674l0,0c-1.116,0.743-1.42,2.251-0.676,3.368L57.749,41.016z"/>
			<polygon style="fill:#DFE5EA;" points="55.111,52.001 85.561,40.163 83.363,37.223 70.807,38.091 46.874,39.279 			"/>
		</g>
		<path style="fill:#F5F7F7;" d="M32.053,22.205l0.095,0.143c-0.646,0.762-2.262,3.282,0.062,7.477l17.77,26.151
			c0,0,5.118,7.424,10.112,13.387c6.193,7.391,7.161,7.58,8.57,7.35l-0.09-0.133c0.68-1.16,0.703-2.364-3.568-10.604
			c-3.579-6.908-8.46-14.488-8.46-14.488L39.25,25.019C35.633,20.449,32.053,22.205,32.053,22.205z"/>
	</g>
	<path style="fill:#739FBC;" d="M33.03,28.821c0,0,0.911-3.697,4.978-3.261l-0.435-0.739c0,0-4.093-0.991-5.045,3.248L33.03,28.821z
		"/>
</g>
</svg>
