<?xml version="1.0" encoding="utf-8"?>
<!-- Generator: Adobe Illustrator 16.0.0, SVG Export Plug-In . SVG Version: 6.00 Build 0)  -->
<!DOCTYPE svg PUBLIC "-//W3C//DTD SVG 1.1//EN" "http://www.w3.org/Graphics/SVG/1.1/DTD/svg11.dtd">
<svg version="1.1" id="cul" xmlns="http://www.w3.org/2000/svg" xmlns:xlink="http://www.w3.org/1999/xlink" x="0px" y="0px"
	 width="100px" height="100px" viewBox="0 0 100 100" style="enable-background:new 0 0 100 100;" xml:space="preserve">
<g id="CUL">
	<linearGradient id="SVGID_1_" gradientUnits="userSpaceOnUse" x1="17.1084" y1="15.6309" x2="83.9169" y2="82.4393">
		<stop  offset="0" style="stop-color:#02CCBA"/>
		<stop  offset="1" style="stop-color:#02B3E4"/>
	</linearGradient>
	<circle style="fill:url(#SVGID_1_);" cx="50.404" cy="49.4" r="47.418"/>
	<linearGradient id="SVGID_2_" gradientUnits="userSpaceOnUse" x1="47.5024" y1="53.0176" x2="80.4167" y2="85.9319">
		<stop  offset="0.381" style="stop-color:#000000"/>
		<stop  offset="1" style="stop-color:#FFFFFF;stop-opacity:0"/>
	</linearGradient>
	<path style="opacity:0.15;fill:url(#SVGID_2_);" d="M57.713,96.251c6.592-1.023,13.07-3.45,18.987-7.393c10.38-6.917,17.143-17.221,19.821-28.468
		l-41.24-41.238L48.686,30.82l0.136,6.786l1.247,2.891l-1.659,2.212l-9.954,8.294l-0.276,8.571l1.895,1.894l-1.065,0.872
		l15.63,15.629l-0.977,1.79l-6.082-6.084l-4.148,3.042l0.592,0.591l-3.08,2.174L57.713,96.251z"/>
	<path id="clef" style="fill:#FFFFFF;" d="M49.912,68.1c-3.727-0.188-7.531-2.238-9.808-4.593c-2.639-2.729-3.729-6.439-3.452-9.488
		c0.813-8.955,11.906-14.254,16.01-18.168c2.748-2.619,3.323-3.897,3.938-5.243c1.188-2.607,1.378-5.661-0.98-5.889
		c-2.251-0.217-4.101,2.89-4.925,5.013c-0.744,1.911-1.236,3.827-0.788,6.705c0.203,1.292,5.756,37.379,5.849,37.94
		c0.935,5.59-2.705,7.904-6.423,8.316c-8.029,0.892-10.61-6.269-7.013-8.99c2.77-2.095,6.801-0.3,6.586,3.144
		c-0.192,3.051-3.599,3.142-4.47,3.072c1.339,2.103,11.413,3.197,9.86-6.306c-0.217-1.336-5.35-35.248-5.475-36.007
		c-0.941-5.681-1.088-10.177,2.282-15.427c1.244-1.938,3.212-3.189,4.178-3.026c0.212,0.037,0.423,0.104,0.591,0.256
		c2.589,2.338,3.385,7.527,3.104,10.508c-0.288,3.051-0.449,6.21-3.904,9.896c-1.337,1.426-5.417,4.568-7.757,6.374
		c-3.287,2.536-5.671,4.753-6.96,7.423c-1.449,3.005-1.693,6.782,1.584,10.135c1.885,1.893,5.015,3.237,7.644,3.264
		c7.318,0.077,9.454-3.09,9.519-6.674c0.11-5.905-8.011-8.134-11.347-4.073c-1.935,2.354-1.083,4.832,0.219,6.011
		c0.446,0.403,0.944,0.712,1.417,0.882c0.17,0.063,0.572,0.229,0.458,0.466c-0.095,0.202-0.278,0.213-0.447,0.195
		c-2.106-0.223-4.438-1.984-5.013-5.025c-0.837-4.425,3.611-9.681,9.967-8.824c4.16,0.561,8.024,3.701,7.689,9.552
		C61.757,64.531,57.021,68.459,49.912,68.1z"/>
</g>
</svg>
