<?xml version="1.0" encoding="utf-8"?>
<!-- Generator: Adobe Illustrator 16.0.0, SVG Export Plug-In . SVG Version: 6.00 Build 0)  -->
<!DOCTYPE svg PUBLIC "-//W3C//DTD SVG 1.1//EN" "http://www.w3.org/Graphics/SVG/1.1/DTD/svg11.dtd">
<svg version="1.1" id="cv" xmlns="http://www.w3.org/2000/svg" xmlns:xlink="http://www.w3.org/1999/xlink" x="0px" y="0px"
	 width="100px" height="100px" viewBox="0 0 100 100" style="enable-background:new 0 0 100 100;" xml:space="preserve">
<g id="CV">
	<linearGradient id="SVGID_1_" gradientUnits="userSpaceOnUse" x1="17.1084" y1="15.6309" x2="83.9169" y2="82.4393">
		<stop  offset="0" style="stop-color:#02CCBA"/>
		<stop  offset="1" style="stop-color:#02B3E4"/>
	</linearGradient>
	<circle style="fill:url(#SVGID_1_);" cx="50.259" cy="48.983" r="47.213"/>
	<linearGradient id="SVGID_2_" gradientUnits="userSpaceOnUse" x1="47.5024" y1="53.0176" x2="80.4167" y2="85.9319">
		<stop  offset="0.381" style="stop-color:#000000"/>
		<stop  offset="1" style="stop-color:#FFFFFF;stop-opacity:0"/>
	</linearGradient>
	<path style="opacity:0.15;fill:url(#SVGID_2_)" d="M97.472,48.983c0-0.821-0.021-1.638-0.063-2.448L81.441,30.568l-14.524,1.474l-4.273,12.683
		l-4.351-9.732l-11.99,0.454l-0.878,0.971l-9.259-9.256l-2.607,5.221l-6.871,37.074l-0.027,0.062l-1.783-0.316l1.337,1.341
		l-0.826,1.895L49.133,96.18c0.375,0.01,0.751,0.015,1.125,0.015C76.334,96.194,97.472,75.057,97.472,48.983z"/>
	<g>
		<g>
			<path style="fill:#132A49;" d="M42.822,51.169H25.643c-0.317,0-0.566-0.251-0.566-0.571c0-0.317,0.249-0.566,0.566-0.566h17.179
				c0.319,0,0.568,0.25,0.568,0.566C43.391,50.917,43.142,51.169,42.822,51.169z"/>
			<rect x="33.359" y="48.489" style="fill:#55C0EB;" width="1.77" height="4.222"/>
			<path style="fill:#132A49;" d="M35.129,53.278h-1.77c-0.318,0-0.566-0.251-0.566-0.567v-4.222c0-0.317,0.248-0.567,0.566-0.567
				h1.77c0.319,0,0.566,0.25,0.566,0.567v4.222C35.674,53.027,35.423,53.278,35.129,53.278z M33.902,52.164h0.637v-3.107h-0.637
				V52.164z"/>
		</g>
		<g>
			<g>
				<polygon style="fill:#FBB854;" points="34.244,39.208 41.505,69.618 43.162,69.23 43.572,65.055 37.217,38.504 				"/>
				<path style="fill:#132A49;" d="M41.505,70.183c-0.248,0-0.475-0.18-0.544-0.432l-7.262-30.407c-0.045-0.137,0-0.296,0.067-0.433
					c0.068-0.137,0.204-0.226,0.342-0.248l2.972-0.705c0.296-0.067,0.614,0.113,0.682,0.409l6.354,26.572
					c0.023,0.071,0.023,0.115,0.023,0.184l-0.408,4.151c-0.024,0.252-0.203,0.433-0.432,0.5l-1.656,0.387
					C41.597,70.183,41.554,70.183,41.505,70.183z M34.925,39.615l7.015,29.319l0.724-0.182l0.362-3.676L36.832,39.14L34.925,39.615z
					"/>
				<path style="fill:#132A49;" d="M42.504,72.543c-0.295,0-0.545-0.228-0.564-0.522l-0.139-2.563
					c-0.021-0.316,0.228-0.566,0.522-0.589c0.316-0.023,0.567,0.226,0.591,0.522l0.137,2.562c0.021,0.316-0.229,0.568-0.523,0.59
					H42.504z"/>
			</g>
			<g>
				<polygon style="fill:#FBB854;" points="34.244,39.208 26.983,69.618 25.326,69.23 24.917,65.055 31.248,38.504 				"/>
				<path style="fill:#132A49;" d="M26.983,70.183c-0.046,0-0.091,0-0.138-0.021l-1.655-0.387c-0.226-0.044-0.409-0.248-0.434-0.5
					l-0.406-4.151c0-0.068,0-0.112,0.023-0.184l6.353-26.572c0.069-0.295,0.386-0.5,0.683-0.409l2.972,0.705
					c0.136,0.044,0.272,0.136,0.339,0.248c0.068,0.137,0.117,0.273,0.068,0.433l-7.262,30.407
					C27.459,70.003,27.232,70.183,26.983,70.183z M25.849,68.777l0.724,0.18l7.013-29.318l-1.883-0.454l-6.218,25.916L25.849,68.777
					z"/>
				<path style="fill:#132A49;" d="M25.983,72.543h-0.021c-0.319-0.021-0.545-0.273-0.523-0.59l0.136-2.562
					c0.023-0.319,0.274-0.546,0.59-0.522c0.318,0.022,0.545,0.272,0.523,0.589l-0.136,2.563
					C26.529,72.294,26.278,72.543,25.983,72.543z"/>
			</g>
		</g>
		<g>
			<rect x="32.724" y="27.521" style="fill:#FBB854;" width="3.041" height="6.535"/>
			<path style="fill:#132A49;" d="M35.744,34.623h-3.043c-0.318,0-0.567-0.25-0.567-0.568v-6.535c0-0.317,0.249-0.568,0.567-0.568
				h3.043c0.315,0,0.564,0.251,0.564,0.568v6.535C36.309,34.374,36.06,34.623,35.744,34.623z M33.292,33.488h1.906v-5.424h-1.906
				V33.488z"/>
		</g>
		<g>
			<polygon style="fill:#55C0EB;" points="30.908,34.055 30.908,39.525 32.338,42.589 36.15,42.589 37.559,39.525 37.559,34.055 			
				"/>
			<path style="fill:#132A49;" d="M36.15,43.157h-3.812c-0.228,0-0.408-0.137-0.521-0.319l-1.428-3.064
				c-0.047-0.067-0.047-0.158-0.047-0.226v-5.47c0-0.316,0.248-0.567,0.566-0.567h6.65c0.317,0,0.566,0.251,0.566,0.567v5.47
				c0,0.091-0.023,0.159-0.045,0.226l-1.43,3.064C36.56,43.02,36.355,43.157,36.15,43.157z M32.679,42.022h3.086l1.224-2.633v-4.766
				h-5.535v4.766L32.679,42.022z"/>
		</g>
		<g>
			<path style="fill:#55C0EB;" d="M41.939,63.828c0.9,0,1.633,0.733,1.633,1.635c0,0.905-0.732,1.633-1.633,1.633
				c-0.903,0-1.637-0.728-1.637-1.633C40.303,64.562,41.036,63.828,41.939,63.828z"/>
			<path style="fill:#132A49;" d="M41.939,67.64c-1.205,0-2.203-0.973-2.203-2.2c0-1.225,0.976-2.2,2.203-2.2
				c1.223,0,2.199,0.976,2.199,2.2C44.139,66.667,43.142,67.64,41.939,67.64z M41.939,64.396c-0.594,0-1.07,0.478-1.07,1.067
				s0.477,1.067,1.07,1.067c0.588,0,1.064-0.478,1.064-1.067S42.527,64.396,41.939,64.396z"/>
		</g>
		<path style="fill:#132A49;" d="M34.244,39.571c-0.316,0-0.568-0.251-0.568-0.568v-2.246c0-0.317,0.252-0.567,0.568-0.567
			c0.317,0,0.568,0.25,0.568,0.567v2.246C34.787,39.32,34.539,39.571,34.244,39.571z"/>
	</g>
	<g>
		<path style="fill:#666D77;" d="M79.435,29.979c-2.45,0-4.493-1.702-5.035-3.97H53.383c-0.544,2.268-2.586,3.97-5.037,3.97l0,0
			c-1.43,0-2.588,1.159-2.588,2.588v3.449h36.287v-3.449C82.023,31.138,80.864,29.979,79.435,29.979L79.435,29.979z"/>
		<path style="fill:#132A49;" d="M82.023,36.583H45.736c-0.318,0-0.568-0.25-0.568-0.567v-3.449c0-1.748,1.407-3.156,3.152-3.156
			c2.136,0,3.995-1.451,4.495-3.539c0.069-0.25,0.297-0.432,0.544-0.432h21.014c0.251,0,0.479,0.182,0.544,0.432
			c0.502,2.088,2.341,3.539,4.495,3.539c1.749,0,3.154,1.408,3.154,3.156v3.449C82.59,36.334,82.339,36.583,82.023,36.583z
			 M46.303,35.447h35.151v-2.88c0-1.113-0.907-2.021-2.02-2.021c-2.519,0-4.699-1.611-5.47-3.97H53.794
			c-0.774,2.359-2.954,3.97-5.474,3.97c-1.111,0-2.018,0.908-2.018,2.021V35.447L46.303,35.447z"/>
		<g>
			<rect x="58.42" y="26.009" style="fill:#FFE3AB;" width="10.918" height="44.752"/>
			<path style="fill:#132A49;" d="M69.338,71.302H58.42c-0.317,0-0.565-0.247-0.565-0.564V26.009c0-0.319,0.248-0.568,0.565-0.568
				h10.918c0.314,0,0.567,0.25,0.567,0.568v44.752C69.905,71.055,69.652,71.302,69.338,71.302z M58.964,70.192h9.807V26.576h-9.807
				V70.192L58.964,70.192z"/>
			<g>
				<path style="fill:#132A49;" d="M61.802,39.601H58.42c-0.317,0-0.565-0.249-0.565-0.568c0-0.317,0.248-0.566,0.565-0.566h3.382
					c0.32,0,0.568,0.249,0.568,0.566C62.37,39.353,62.099,39.601,61.802,39.601z"/>
				<path style="fill:#132A49;" d="M61.802,45.049H58.42c-0.317,0-0.565-0.252-0.565-0.569c0-0.319,0.248-0.566,0.565-0.566h3.382
					c0.32,0,0.568,0.247,0.568,0.566C62.37,44.797,62.099,45.049,61.802,45.049z"/>
				<path style="fill:#132A49;" d="M61.802,50.495H58.42c-0.317,0-0.565-0.251-0.565-0.567c0-0.318,0.248-0.568,0.565-0.568h3.382
					c0.32,0,0.568,0.25,0.568,0.568C62.37,50.244,62.099,50.495,61.802,50.495z"/>
				<path style="fill:#132A49;" d="M61.802,55.938H58.42c-0.317,0-0.565-0.248-0.565-0.565c0-0.315,0.248-0.568,0.565-0.568h3.382
					c0.32,0,0.568,0.253,0.568,0.568C62.347,55.69,62.099,55.938,61.802,55.938z"/>
				<path style="fill:#132A49;" d="M61.802,61.389H58.42c-0.317,0-0.565-0.25-0.565-0.566c0-0.32,0.248-0.568,0.565-0.568h3.382
					c0.32,0,0.568,0.248,0.568,0.568C62.347,61.139,62.099,61.389,61.802,61.389z"/>
				<path style="fill:#132A49;" d="M61.802,66.832H58.42c-0.317,0-0.565-0.249-0.565-0.566c0-0.318,0.248-0.568,0.565-0.568h3.382
					c0.32,0,0.568,0.25,0.568,0.568C62.347,66.583,62.099,66.832,61.802,66.832z"/>
			</g>
		</g>
	</g>
</g>
</svg>
