<?xml version="1.0" encoding="utf-8"?>
<!-- Generator: Adobe Illustrator 16.0.0, SVG Export Plug-In . SVG Version: 6.00 Build 0)  -->
<!DOCTYPE svg PUBLIC "-//W3C//DTD SVG 1.1//EN" "http://www.w3.org/Graphics/SVG/1.1/DTD/svg11.dtd">
<svg version="1.1" id="Layer_1" xmlns="http://www.w3.org/2000/svg" xmlns:xlink="http://www.w3.org/1999/xlink" x="0px" y="0px"
	 width="640px" height="480px" viewBox="0 0 640 480" style="enable-background:new 0 0 640 480;" xml:space="preserve">
<linearGradient id="SVGID_1_" gradientUnits="userSpaceOnUse" x1="37.5" y1="523.5" x2="605.0688" y2="-44.0688">
	<stop  offset="0" style="stop-color:#F09433"/>
	<stop  offset="0.1624" style="stop-color:#E6683C"/>
	<stop  offset="0.4612" style="stop-color:#DC2743"/>
	<stop  offset="0.7357" style="stop-color:#CC2366"/>
	<stop  offset="1" style="stop-color:#BC1888"/>
</linearGradient>
<rect x="-3" y="-3" style="fill:url(#SVGID_1_);" width="648" height="486"/>
<g style="opacity:0.7;">
	<circle style="fill:#FFFFFF;" cx="320.609" cy="175.297" r="14.734"/>
	<path style="fill:#FFFFFF;" d="M306.798,129.255l-8.426,9.209h-14.595c-5.065,0-9.208,4.143-9.208,9.208v55.25
		c0,5.062,4.143,9.208,9.208,9.208h73.667c5.063,0,9.208-4.146,9.208-9.208v-55.25c0-5.065-4.145-9.208-9.208-9.208H342.85
		l-8.426-9.209H306.798z M320.609,198.317c-12.705,0-23.02-10.314-23.02-23.021c0-12.707,10.314-23.021,23.02-23.021
		c12.707,0,23.022,10.314,23.022,23.021C343.632,188.003,333.318,198.317,320.609,198.317z"/>
</g>
<text transform="matrix(1 0 0 1 180.0415 274.9844)" style="opacity:0.7;fill:#FFFFFF;enable-background:new    ; font-family:'ArialMT'; font-size:27.0851;">NO IMAGE AVAILABLE</text>
</svg>
