<?xml version="1.0" encoding="utf-8"?>
<!-- Generator: Adobe Illustrator 16.0.0, SVG Export Plug-In . SVG Version: 6.00 Build 0)  -->
<!DOCTYPE svg PUBLIC "-//W3C//DTD SVG 1.1//EN" "http://www.w3.org/Graphics/SVG/1.1/DTD/svg11.dtd">
<svg version="1.1" id="ece" xmlns="http://www.w3.org/2000/svg" xmlns:xlink="http://www.w3.org/1999/xlink" x="0px" y="0px"
	 width="100px" height="100px" viewBox="0 0 100 100" style="enable-background:new 0 0 100 100;" xml:space="preserve">
<g id="ECE">
	<linearGradient id="SVGID_1_" gradientUnits="userSpaceOnUse" x1="17.1084" y1="15.6309" x2="83.9169" y2="82.4393">
		<stop  offset="0" style="stop-color:#02CCBA"/>
		<stop  offset="1" style="stop-color:#02B3E4"/>
	</linearGradient>
	<ellipse style="fill:url(#SVGID_1_);" cx="50.512" cy="49.034" rx="47.267" ry="47.215"/>
	<g>
		<path style="fill:#FFFFFF;" d="M21.866,21.26l-5.757,10.923c-0.218-0.008-0.438-0.005-0.661,0.012
			c-3.32,0.251-5.808,3.147-5.556,6.468s3.147,5.808,6.467,5.556c3.321-0.252,5.808-3.147,5.556-6.468
			c-0.141-1.865-1.117-3.467-2.535-4.469l5.992-11.368l-0.042-0.021L24.404,9.678c-1.115,0.74-2.193,1.53-3.238,2.358L21.866,21.26z
			 M16.112,40.952c-1.517,0.115-2.838-1.02-2.953-2.537c-0.116-1.516,1.021-2.837,2.536-2.953c1.516-0.114,2.839,1.021,2.953,2.537
			C18.764,39.515,17.629,40.837,16.112,40.952z"/>
		<path style="fill:#FFFFFF;" d="M65.636,21.422l0.081-0.007l29.537,12.399c-0.517-1.516-1.106-2.996-1.77-4.438L68.872,19.045
			l-1.06-13.946c-1.148-0.453-2.316-0.87-3.51-1.231L65.636,21.422z"/>
		<path style="fill:#FFFFFF;" d="M47.088,26.477l0.027-0.002l-0.029,0.07l21.356,8.966l1.359,17.911
			c-2.453,0.912-4.114,3.359-3.906,6.103c0.252,3.32,3.147,5.806,6.468,5.556c3.32-0.252,5.808-3.146,5.557-6.469
			c-0.206-2.719-2.186-4.876-4.716-5.432l-1.513-19.934l0.023-0.059l-21.381-8.973L48.64,1.866
			c-1.145,0.045-2.277,0.128-3.399,0.253L47.088,26.477z M71.699,56.322c1.516-0.115,2.839,1.021,2.952,2.537
			c0.116,1.516-1.019,2.836-2.535,2.952c-1.517,0.115-2.84-1.021-2.954-2.537C69.047,57.76,70.184,56.436,71.699,56.322z"/>
		<path style="fill:#FFFFFF;" d="M28.54,67.877l-0.099,0.008L21.363,58c1.186-1.198,1.871-2.882,1.732-4.695
			c-0.251-3.32-3.147-5.808-6.468-5.556c-3.32,0.252-5.808,3.147-5.555,6.467c0.251,3.319,3.147,5.808,6.467,5.555
			c0.279-0.021,0.548-0.066,0.813-0.123l6.873,9.6l1.564,20.62c1.158,0.672,2.343,1.3,3.561,1.877L28.54,67.877z M17.292,56.505
			c-1.515,0.115-2.837-1.02-2.952-2.535c-0.115-1.519,1.021-2.839,2.537-2.954c1.515-0.115,2.837,1.021,2.952,2.535
			C19.944,55.067,18.809,56.392,17.292,56.505z"/>
		<path style="fill:#FFFFFF;" d="M57.351,54.303c2.505-0.883,4.213-3.358,4.003-6.135c-0.253-3.32-3.148-5.809-6.468-5.557
			c-3.32,0.252-5.809,3.148-5.558,6.469c0.205,2.683,2.132,4.818,4.617,5.41l3.133,41.296c1.138-0.158,2.262-0.353,3.372-0.59
			L57.351,54.303z M52.598,48.832c-0.115-1.517,1.019-2.838,2.536-2.952c1.516-0.116,2.837,1.018,2.952,2.536
			c0.114,1.515-1.021,2.837-2.535,2.953C54.034,51.483,52.712,50.346,52.598,48.832z"/>
		<path style="fill:#FFFFFF;" d="M43.293,64.825l0.061-0.044l-7.815-10.913l3.463-9.401c0.039-0.003,0.079,0,0.119-0.004
			c3.321-0.251,5.808-3.147,5.557-6.467c-0.252-3.32-3.149-5.809-6.469-5.557c-3.321,0.252-5.808,3.148-5.556,6.468
			c0.157,2.068,1.339,3.809,3.008,4.771l-4.141,10.735l-0.144,0.018v0.001l8.395,11.456l2.339,29.62
			c1.14,0.201,2.336,0.376,3.503,0.494L43.293,64.825z M38.456,35.707c1.516-0.115,2.838,1.021,2.954,2.537
			c0.114,1.516-1.021,2.84-2.538,2.953c-1.515,0.115-2.837-1.021-2.953-2.537C35.805,37.145,36.939,35.822,38.456,35.707z"/>
		<path style="fill:#FFFFFF;" d="M72.27,77.729l16.875-13.266l0.259-0.019l-1.015-13.382c2.576-0.845,4.346-3.355,4.132-6.18
			c-0.252-3.32-3.146-5.808-6.467-5.556c-3.322,0.252-5.81,3.149-5.556,6.468c0.199,2.634,2.062,4.736,4.48,5.372l0.876,11.549
			L68.791,76.129l-0.06,0.005l1.209,15.941c1.12-0.507,2.222-1.046,3.293-1.635L72.27,77.729z M83.764,45.546
			c-0.115-1.513,1.021-2.836,2.538-2.951c1.517-0.116,2.839,1.02,2.952,2.536c0.116,1.517-1.021,2.839-2.536,2.953
			C85.2,48.2,83.879,47.063,83.764,45.546z"/>
	</g>
</g>
</svg>
