<?xml version="1.0" encoding="utf-8"?>
<!-- Generator: Adobe Illustrator 16.0.0, SVG Export Plug-In . SVG Version: 6.00 Build 0)  -->
<!DOCTYPE svg PUBLIC "-//W3C//DTD SVG 1.1//EN" "http://www.w3.org/Graphics/SVG/1.1/DTD/svg11.dtd">
<svg version="1.1" id="me" xmlns="http://www.w3.org/2000/svg" xmlns:xlink="http://www.w3.org/1999/xlink" x="0px" y="0px"
	 width="100px" height="100px" viewBox="0 0 100 100" style="enable-background:new 0 0 100 100;" xml:space="preserve">
<g id="ME">
	<linearGradient id="SVGID_1_" gradientUnits="userSpaceOnUse" x1="17.1084" y1="15.6309" x2="83.9169" y2="82.4393">
		<stop  offset="0" style="stop-color:#02CCBA"/>
		<stop  offset="1" style="stop-color:#02B3E4"/>
	</linearGradient>
	<circle style="fill:url(#SVGID_1_);" cx="50.291" cy="49.375" r="47.124"/>
	<linearGradient id="SVGID_2_" gradientUnits="userSpaceOnUse" x1="47.5024" y1="53.0176" x2="80.4167" y2="85.9319">
		<stop  offset="0.381" style="stop-color:#000000"/>
		<stop  offset="1" style="stop-color:#FFFFFF;stop-opacity:0"/>
	</linearGradient>
	<path style="opacity:0.15;fill:url(#SVGID_2_);enable-background:new    ;" d="M55.4,96.223c21.855-2.356,39.23-19.656,41.707-41.477l-22.807-22.81
		l-4.432,3.807l0.431,0.62l-1.161,1.234l-4.037-2.284l-4.113,5.311l1.172,4.389l-2.742,2.914l-4.939-4.939L47.64,45.62l-2.734-1.631
		l-7.854-0.448L21.135,56.867l7.154,7.152l-2.457,2.635L55.4,96.223z"/>
	<g>
		<path style="fill:#FFFFFF;" d="M52.941,58.559l5.07-1.69v-5.431l-5.07-1.688c-0.205-0.666-0.463-1.281-0.819-1.947l2.354-4.814
			l-3.84-3.841l-4.816,2.356c-0.46-0.256-0.921-0.461-1.434-0.614c-0.154-0.051-0.308-0.103-0.512-0.154l-1.588-5.02h-5.429
			l-1.69,5.071c-0.154,0.052-0.308,0.103-0.461,0.153c-0.461,0.207-0.974,0.411-1.435,0.615l-4.814-2.355l-3.841,3.841l2.356,4.814
			c-0.307,0.615-0.564,1.281-0.769,1.947l-5.07,1.639v5.43l5.07,1.689c0.102,0.308,0.205,0.666,0.358,0.975
			c0.155,0.306,0.256,0.665,0.41,0.974l-2.356,4.813l3.841,3.841l4.814-2.356c0.461,0.258,0.974,0.463,1.435,0.615
			c0.154,0.053,0.307,0.104,0.461,0.153l1.69,5.071h5.377l1.691-5.071c0.153-0.052,0.306-0.103,0.512-0.153
			c0.461-0.205,0.973-0.409,1.434-0.615l4.814,2.356l3.84-3.841l-2.354-4.813c0.153-0.309,0.307-0.614,0.409-0.974
			C52.686,59.225,52.839,58.916,52.941,58.559z M39.574,61.477c-4.048,0-7.326-3.276-7.326-7.322c0-4.047,3.277-7.326,7.326-7.326
			c4.046,0,7.323,3.278,7.323,7.326C46.897,58.199,43.62,61.477,39.574,61.477z"/>
		<path style="fill:#FFFFFF;" d="M52.941,58.559l5.07-1.69v-5.431l-5.07-1.688c-0.205-0.666-0.463-1.281-0.819-1.947l2.354-4.814
			l-3.84-3.841l-4.816,2.356c-0.46-0.256-0.921-0.461-1.434-0.614c-0.154-0.051-0.308-0.103-0.512-0.154l0,0l-1.588-5.02h-5.429
			l-1.69,5.071l0,0c-0.154,0.052-0.308,0.103-0.461,0.153c-0.461,0.207-0.974,0.411-1.435,0.615l-4.814-2.355l-3.841,3.841
			l2.356,4.814c-0.307,0.615-0.564,1.281-0.769,1.947l-5.07,1.639v5.43l5.07,1.689c0.102,0.308,0.205,0.666,0.358,0.975
			c0.155,0.306,0.256,0.665,0.41,0.974l-2.356,4.813l3.841,3.841l4.814-2.356c0.461,0.258,0.974,0.463,1.435,0.615
			c0.154,0.053,0.307,0.104,0.461,0.153l0,0l1.69,5.071h5.377l1.691-5.071l0,0c0.153-0.052,0.306-0.103,0.512-0.153
			c0.461-0.205,0.973-0.409,1.434-0.615l4.814,2.356l3.84-3.841l-2.354-4.813c0.153-0.309,0.307-0.614,0.409-0.974
			C52.686,59.225,52.839,58.916,52.941,58.559z M39.574,61.477c-4.048,0-7.326-3.276-7.326-7.322c0-4.047,3.277-7.326,7.326-7.326
			c4.046,0,7.323,3.278,7.323,7.326C46.897,58.199,43.62,61.477,39.574,61.477z"/>
	</g>
	<g>
		<path style="fill:#FFFFFF;" d="M77.197,42.456l2.877-2.369l-1.358-3.535l-3.724,0.17c-0.301-0.382-0.62-0.718-1.021-1.062
			l0.331-3.724l-3.465-1.538l-2.544,2.738c-0.361-0.052-0.715-0.069-1.087-0.041c-0.11,0.005-0.226,0.01-0.371,0.028l-2.289-2.87
			l-3.534,1.359l0.168,3.724c-0.087,0.071-0.174,0.143-0.262,0.215c-0.249,0.249-0.529,0.51-0.777,0.76l-3.726-0.329l-1.538,3.462
			l2.738,2.543c-0.047,0.477-0.049,0.975-0.014,1.46l-2.89,2.335l1.36,3.534l3.721-0.169c0.145,0.175,0.301,0.383,0.477,0.544
			c0.179,0.162,0.336,0.369,0.513,0.531l-0.328,3.725l3.462,1.539l2.542-2.739c0.366,0.051,0.75,0.056,1.089,0.041
			c0.112-0.007,0.227-0.013,0.339-0.017l2.369,2.877l3.501-1.347l-0.169-3.722c0.086-0.073,0.175-0.146,0.294-0.23
			c0.249-0.248,0.53-0.509,0.78-0.758l3.723,0.329l1.539-3.462l-2.737-2.544c0.021-0.239,0.045-0.477,0.021-0.736
			C77.197,42.954,77.221,42.715,77.197,42.456z M69.227,47.703c-2.634,1.012-5.588-0.3-6.602-2.934
			c-1.012-2.633,0.303-5.588,2.936-6.601c2.635-1.013,5.588,0.3,6.603,2.934C73.172,43.735,71.861,46.689,69.227,47.703z"/>
		<path style="fill:#FFFFFF;" d="M77.197,42.456l2.877-2.369l-1.358-3.535l-3.724,0.17c-0.301-0.382-0.62-0.718-1.021-1.062
			l0.331-3.724l-3.465-1.538l-2.544,2.738c-0.361-0.052-0.715-0.069-1.087-0.041c-0.11,0.005-0.226,0.01-0.371,0.028l0,0
			l-2.289-2.87l-3.534,1.359l0.168,3.724l0,0c-0.087,0.071-0.174,0.143-0.262,0.215c-0.249,0.249-0.529,0.51-0.777,0.76
			l-3.726-0.329l-1.538,3.462l2.738,2.543c-0.047,0.477-0.049,0.975-0.014,1.46l-2.89,2.335l1.36,3.534l3.721-0.169
			c0.145,0.175,0.301,0.383,0.477,0.544c0.179,0.162,0.336,0.369,0.513,0.531l-0.328,3.725l3.462,1.539l2.542-2.739
			c0.366,0.051,0.75,0.056,1.089,0.041c0.112-0.007,0.227-0.013,0.339-0.017l0,0l2.369,2.877l3.501-1.347l-0.169-3.722l0,0
			c0.086-0.073,0.175-0.146,0.294-0.23c0.249-0.248,0.53-0.509,0.78-0.758l3.723,0.329l1.539-3.462l-2.737-2.544
			c0.021-0.239,0.045-0.477,0.021-0.736C77.197,42.954,77.221,42.715,77.197,42.456z M69.227,47.703
			c-2.634,1.012-5.588-0.3-6.602-2.934c-1.012-2.633,0.303-5.588,2.936-6.601c2.635-1.013,5.588,0.3,6.603,2.934
			C73.172,43.735,71.861,46.689,69.227,47.703z"/>
	</g>
</g>
</svg>
